<svg width="18" height="18" viewBox="0 0 18 18" fill="none" xmlns="http://www.w3.org/2000/svg">
<path d="M8.53822 0.609738C8.70901 0.199098 9.2907 0.199098 9.4615 0.609738L11.5276 5.57722C11.5996 5.75034 11.7624 5.86863 11.9493 5.88361L17.3121 6.31354C17.7555 6.34908 17.9352 6.90234 17.5975 7.19167L13.5116 10.6917C13.3692 10.8137 13.307 11.0051 13.3505 11.1874L14.5988 16.4206C14.702 16.8532 14.2314 17.1952 13.8518 16.9633L9.2605 14.159C9.1005 14.0613 8.89926 14.0613 8.73925 14.159L4.14794 16.9633C3.76839 17.1952 3.29776 16.8532 3.40096 16.4206L4.64926 11.1874C4.69277 11.0051 4.63058 10.8137 4.48819 10.6917L0.402289 7.19167C0.0645189 6.90234 0.244289 6.34908 0.687609 6.31354L6.05042 5.88361C6.23732 5.86863 6.40012 5.75034 6.47213 5.57722L8.53822 0.609738Z" fill="#FEC84B"/>
</svg>
